<?xml version="1.0" encoding="utf-8"?>
<!-- Generator: Adobe Illustrator 21.0.2, SVG Export Plug-In . SVG Version: 6.00 Build 0)  -->
<svg version="1.1" id="Layer_1" xmlns="http://www.w3.org/2000/svg" xmlns:xlink="http://www.w3.org/1999/xlink" x="0px" y="0px"
	 viewBox="0 0 120 120" style="enable-background:new 0 0 120 120;" xml:space="preserve">
<style type="text/css">
	.st0{fill:#FFFFFF;}
</style>
<path class="st0" d="M61.4,48.3c0.6-1.8,0.3-2.3,0.3-2.4c-0.3-0.4-1.8-0.5-3-0.6c-1-0.1-2-0.1-3.1-0.4c-3.7-0.9-5.7-4.3-4.8-8.3
	c0.7-2.8,2.6-5.1,4.9-6c2-0.7,4.1-0.4,5.9,1c2.1,1.5,2.9,1.4,3.1,1.3c0.5-0.2,0.9-1,1.2-2.3c0.7-2.9,1-12,1-16.2
	c-2-1.2-8-4.8-12.7-6.2C53.5,8,52.8,8,52.5,8.2c-0.6,0.4-0.6,2.4-0.7,3.9c0,1.3-0.1,2.6-0.3,3.8c-0.8,3.5-4,5.1-8.2,4.1
	c-2.8-0.7-5.1-2.4-6-4.7c-0.8-1.9-0.6-4,0.7-6c1-1.6,1.4-3.3,1.1-4.2c-0.1-0.3-0.4-0.7-1.4-1c-2.8-0.7-10.2-0.3-14.1,0
	c-0.1,3.2-0.3,11.4-1,15.5l0,0c-0.3,1.4-0.8,3.4-2.5,4.2c-1.7,0.8-3.4-0.2-5.1-1.1C14,22,13,21.5,12.1,21.2
	c-2.2-0.5-3.8,0.6-4.4,2.9c-0.4,1.7,0,3.5,1,4.5c0.8,0.8,1.9,1.2,3.2,1c2.8-0.5,4.8,0,6,1.3c1.1,1.3,1.3,3.4,0.3,6.1
	c-1.1,3.2-3.9,9-5.2,11.5c3.4,2,9.8,5.7,12.6,6.3c1,0.2,1.4-0.1,1.6-0.3c0.8-0.7,1.1-2.3,1-4.3C28,48,28.8,46,30.3,44.6
	c1.9-1.6,4.6-2.2,7.4-1.5c4.2,1,6.4,3.8,5.5,7.3c-0.3,1.2-0.8,2.4-1.4,3.5c-0.6,1.3-1.5,3.1-1.1,3.8c0.2,0.3,0.8,0.6,1.7,0.8
	c4.8,0.9,11.9,0.3,14.2,0.1C57.6,57.1,59.8,52.9,61.4,48.3z"/>
<path class="st0" d="M59.2,83c-0.8-0.8-1.8-1.1-3-0.9c-1.9,0.3-4.5,0.6-6.1-1.1c-1.1-1.2-1.4-2.9-0.8-5.3c0.7-3.1,4-10.2,5.8-13.9
	c-3.3,0.2-8.9,0.4-13.1-0.3c-2-0.3-3.2-1.1-3.8-2.3c-1-2,0.1-4.2,1.1-6.4c0.5-1,1-2.1,1.2-2.9c0.4-1.9-0.7-3.1-3.3-3.7
	c-1.9-0.4-3.7-0.1-4.8,0.9c-0.8,0.7-1.2,1.8-1.1,3.1c0.3,3-0.4,5.4-1.9,6.8c-0.8,0.7-2.1,1.4-4.3,1c-3.5-0.7-10.5-4.8-13.5-6.6
	c-1.5,2.5-4.7,8.1-6,12.7c-0.3,1.1-0.3,1.8-0.1,2c0.4,0.5,2.3,0.4,3.6,0.3c1.4-0.1,2.9-0.1,4.2,0.2c3.5,0.8,5,4,4,8.4
	c-0.7,2.9-2.6,5.3-4.9,6.1c-1.9,0.7-4,0.4-5.8-1c-1.5-1.1-2.8-1.6-3.5-1.3c-0.5,0.2-1,1-1.2,2.2c-0.5,3-0.4,10-0.4,13.2
	c3.4-0.3,11.2-0.8,14.7,0.1c0.1,0,0.1,0,0.2,0c2.1,0.5,3,1.8,3.4,2.7c0.8,1.9,0.3,4.4-1.3,7c-0.7,1.1-0.8,2.2-0.4,3.3
	c0.6,1.4,2.1,2.5,3.9,2.9c2.6,0.6,4.2,0,4.6-1.9c0.2-0.9,0.2-2,0.3-3.1c0.1-2.4,0.1-4.9,1.9-6.2c1.1-0.8,2.6-0.9,4.5-0.4
	c4,1.2,8.8,3.8,11.7,5.5c-0.1-2.4,0-6.1,0.5-9.9c0.3-2.3,1.1-3.7,2.3-4.5c1.7-1,3.7-0.2,5.5,0.6c0.8,0.3,1.7,0.7,2.4,0.9
	c2.1,0.5,3.8-0.7,4.4-3.1C60.7,86,60.3,84.1,59.2,83z"/>
<path class="st0" d="M117.4,45c-0.8-0.8-1.9-1.2-3.2-1c-2.8,0.5-4.8,0-6-1.3c-1.1-1.3-1.3-3.4-0.3-6.1c1.1-3.2,3.9-9,5.2-11.5
	c-2.4-1.4-7.9-4.6-12.2-5.9c-0.9-0.3-1.6-0.3-1.9-0.1c-0.6,0.4-0.6,2.4-0.7,3.9c0,1.3-0.1,2.6-0.3,3.8c-0.8,3.5-4,5.1-8.2,4.1
	c-2.8-0.7-5.1-2.4-6-4.7c-0.8-1.9-0.6-4,0.7-6c1-1.6,1.4-3.3,1.1-4.2c-0.1-0.3-0.4-0.7-1.4-1c-2.8-0.7-10.2-0.3-14.1,0
	c0,3.5-0.2,12.9-1.1,16.3c-0.6,2.4-1.6,3.9-3.2,4.4c-2.1,0.8-4.4-0.7-5.9-1.8c-1-0.8-2-1-3.1-0.6c-1.4,0.5-2.6,2-3.1,3.9
	c-0.6,2.4,0.4,4.2,2.5,4.7c0.8,0.2,1.7,0.3,2.6,0.3c2,0.1,4.1,0.3,5.2,1.9c1,1.6,0.6,3.6,0.1,5c-1.2,3.7-2.8,7-3.9,9.1
	c3.8-0.3,10.4-0.6,13.5,0.2c0.1,0,0.1,0,0.2,0c2.1,0.5,3,1.8,3.4,2.7c0.8,1.9,0.3,4.4-1.3,7c-0.7,1.1-0.8,2.2-0.4,3.3
	c0.6,1.4,2.1,2.5,3.9,2.9c2.6,0.6,4.2,0,4.6-1.9c0.2-0.9,0.2-2,0.3-3.1c0.1-2.4,0.1-4.9,1.9-6.2c1.1-0.8,2.6-0.9,4.5-0.4
	c4.1,1.2,9.1,3.9,11.9,5.6c0.1-3.7,0.3-10.6,0.9-14.2l0,0c0.3-1.4,0.8-3.4,2.5-4.2c1.7-0.8,3.4,0.2,5.1,1.1c0.9,0.5,1.9,1.1,2.8,1.3
	c2.2,0.5,3.8-0.6,4.4-2.9C118.7,47.8,118.4,46,117.4,45z"/>
<path class="st0" d="M97.5,104.5c0.5-1.6,0.6-2.7,0.2-3.2c-0.4-0.5-1.6-0.6-3.2-0.3c-2.3,0.4-4.4-0.3-5.9-1.9
	c-1.7-1.8-2.3-4.6-1.7-7.3c0.9-3.9,4.2-6,7.9-5.1c1.3,0.3,2.5,1,3.6,1.6c0.7,0.4,2.1,1.2,2.4,1c0,0,0.4-0.3,0.8-2
	c0.7-4.1,0.9-12.8,0.9-15.5c-2-1.2-8-4.8-12.7-6.2c-0.9-0.3-1.6-0.3-1.9-0.1c-0.6,0.4-0.6,2.4-0.7,3.9c0,1.3-0.1,2.6-0.3,3.8
	c-0.8,3.5-4,5.1-8.2,4.1c-2.8-0.7-5-2.4-6-4.7c-0.8-1.9-0.6-4.1,0.6-6c1-1.7,1.4-3.3,1-4.3c-0.1-0.3-0.4-0.7-1.3-1c0,0-0.1,0-0.1,0
	c-3-0.7-10.8-0.2-14.5,0.1c-1.3,2.7-5.6,11.7-6.3,14.9c-0.3,1.3-0.3,2.3,0.1,2.6c0.2,0.2,0.8,0.6,3.4,0.2c2.2-0.4,4.3,0.2,5.7,1.8
	c1.7,1.8,2.4,4.7,1.7,7.6c-0.9,4-4.2,6.2-8,5.3c-1-0.2-2-0.6-2.9-1c-1.1-0.5-2.5-1-2.9-0.8c-0.1,0.1-0.6,0.4-0.9,2.3
	c-0.7,4.9-0.5,9.6-0.4,11.4c3.2,1.9,10.2,6,13.1,6.6c1,0.2,1.4-0.1,1.7-0.3c0.8-0.7,1.1-2.3,0.9-4.2c-0.2-2.3,0.5-4.3,2.1-5.6
	c1.9-1.6,4.6-2.2,7.5-1.5c4.2,1,6.4,3.8,5.5,7.3c-0.3,1.2-0.8,2.4-1.4,3.5c-0.6,1.3-1.5,3.1-1.1,3.8c0.2,0.3,0.8,0.6,1.7,0.8
	c4.8,0.9,11.8,0.3,14.1,0.1C93.3,114,96.4,107.7,97.5,104.5z"/>
</svg>
