<svg id="Layer_1" data-name="Layer 1" xmlns="http://www.w3.org/2000/svg" viewBox="0 0 120 120"><title>attach-k</title><path d="M59.79,120a14.15,14.15,0,0,1-9-3.1L35.58,104.38c-4.48-3.68-7.86-8.07-7.86-16.62V12.34A12.35,12.35,0,0,1,40.05,0H63.5A12.35,12.35,0,0,1,75.83,12.34V79.73a4.11,4.11,0,0,1-8.22,0V12.34A4.11,4.11,0,0,0,63.5,8.22H40.05a4.11,4.11,0,0,0-4.11,4.11V87.76c0,4.74,1.38,6.79,4.86,10.27L56,110.55a6.33,6.33,0,0,0,7.49,0L79.2,97.68a12.4,12.4,0,0,0,4.86-10.26V4.11a4.11,4.11,0,0,1,8.22,0V87.42c0,8-2,11.58-7.86,16.62L68.76,116.9A14.15,14.15,0,0,1,59.79,120Z"/></svg>