<?xml version="1.0" encoding="utf-8"?>
<!-- Generator: Adobe Illustrator 22.0.1, SVG Export Plug-In . SVG Version: 6.00 Build 0)  -->
<svg version="1.1" id="Layer_1" xmlns="http://www.w3.org/2000/svg" xmlns:xlink="http://www.w3.org/1999/xlink" x="0px" y="0px"
	 viewBox="0 0 120 120" style="enable-background:new 0 0 120 120;" xml:space="preserve">
<style type="text/css">
	.st0{fill:none;stroke:#000000;stroke-width:4;stroke-linecap:round;stroke-linejoin:round;stroke-miterlimit:10;}
</style>
<g>
	<line class="st0" x1="106.6" y1="110" x2="13.4" y2="110"/>
</g>
<path class="st0" d="M87.6,67.6l13.7-15.7c1.5-1.7-0.5-4.6-2.9-4.6l-15.4,0c-2.4,0-4.4-1.8-4.4-4V14c0-2.2-2-4-4.4-4l-31.5,0
	c-2.4,0-4.4,1.8-4.4,4v29.2c0,2.2-2,4-4.4,4H18.7c-2.4,0-4.4,2.9-2.9,4.6l39.5,45.4c0.8,0.9,1.6,1.6,3.2,1.6s2.4-0.8,3.2-1.6
	l5.8-6.6"/>
</svg>
