<?xml version="1.0" encoding="utf-8"?>
<!-- Generator: Adobe Illustrator 21.1.0, SVG Export Plug-In . SVG Version: 6.00 Build 0)  -->
<svg version="1.1" id="Layer_1" xmlns="http://www.w3.org/2000/svg" xmlns:xlink="http://www.w3.org/1999/xlink" x="0px" y="0px"
	 viewBox="0 0 120 120" style="enable-background:new 0 0 120 120;" xml:space="preserve">
<style type="text/css">
	.st0{opacity:0.3;}
	.st1{fill:#FF9E04;}
</style>
<g class="st0">
	<g>
		<path d="M44,8.5c-1.9,0-3.5,1.3-3.9,3.2c-1.8,9.1-4.3,20.2-6,23.9c-0.6,1.2-1.7,3.4-3,3.6c-0.1,0-0.2,0-0.3,0
			c-0.7,0-2.1-0.5-4.4-3.1s-4.9-3.2-6.6-3.2c-0.5,0-1,0-1.5,0.1c-3.7,0.6-7,3.5-8.7,7.5C7.2,46,9,51.5,14.1,53.7
			c1.4,0.6,3,1.1,4.4,1.4c2.5,0.6,4.2,1.2,4.6,2.1c0.2,0.6,0.2,1.8-1.1,4.3c-2.7,5.1-5.9,9.5-8.2,12.4c-0.9,1.1-1.1,2.7-0.5,4
			s1.8,2.3,3.2,2.4c9.2,1,16.1,2.4,19,3.7l0.1,0.1c1.2,0.6,1.9,1.3,2.1,2.3c0.4,1.8-0.8,4.4-3,6.9c-2.8,3.1-2.9,6.3-2.5,8.4
			c0.7,3.6,3.5,6.7,7.3,8.4c2,0.9,3.8,1.3,5.4,1.3c3.3,0,6-1.8,7.4-4.9c0.7-1.6,1.1-3.6,1.5-5.5c0.6-2.7,1.2-5.7,2.5-6.3
			c0.2-0.1,0.4-0.1,0.7-0.1c0.4,0,1.2,0.1,2.5,0.8c5.5,2.9,12,8.4,15.4,11.4c0.7,0.7,1.7,1,2.7,1c0.4,0,0.8-0.1,1.2-0.2
			c1.4-0.4,2.4-1.6,2.7-3c1.2-5.6,3.5-15.8,5.3-21c1.1-2.8,1.9-3.2,2.2-3.3c0.1,0,0.1,0,0.2,0c0.8,0,2.4,1.4,3.6,2.4
			c1.4,1.2,3,2.6,4.8,3.4c1.3,0.6,2.7,0.9,4.1,0.9c3.7,0,6.9-2.3,8.6-6.1c1.6-3.7,1.4-7.9-0.5-10.9c-1.7-2.7-4.5-4.2-7.8-4.3
			c-2.7,0-4.6-0.7-5.1-1.7c-0.6-1-0.1-3.1,1.2-5.6c2.4-4.5,8.4-12.6,10.8-15.8c1.2-1.6,1-4-0.5-5.4c-3.8-3.5-11.2-9.8-17.5-13.1
			C89.4,23.4,88,23,86.8,23c-0.8,0-1.6,0.2-2.2,0.5c-2.8,1.4-3.5,4.9-4.3,8.6c-0.4,1.8-0.7,3.6-1.3,4.9c-0.9,2-2.2,2.9-4.2,2.9
			c-1.2,0-2.6-0.3-4-1c-2.9-1.3-4.9-3.6-5.4-6.1c-0.5-2.4,0.7-4.4,1.7-5.5c1.4-1.5,4.5-5.6,3.8-9.6c-0.3-1.4-1.2-3.5-4-4.8
			C62,10.5,49.5,9.1,44.4,8.5C44.3,8.5,44.1,8.5,44,8.5L44,8.5z"/>
	</g>
</g>
<g>
	<g>
		<path class="st1" d="M106.5,72c-0.9-1.5-2.5-2.3-4.5-2.4c-4.4-0.1-7.2-1.3-8.6-3.7c-1.3-2.4-0.9-5.6,1.2-9.4
			c2.5-4.7,8.5-12.7,11.1-16.3c-3.1-2.9-10.5-9.3-16.6-12.5c-1.3-0.6-2.3-0.9-2.8-0.7c-1,0.5-1.7,3.6-2.1,5.8
			c-0.4,1.9-0.8,4-1.6,5.7c-2.2,5.2-7.4,6.7-13.5,3.9c-4.1-1.8-6.9-5.2-7.7-8.9c-0.6-3.2,0.3-6.4,2.7-9c2-2.2,3.1-4.6,2.8-6.2
			c-0.1-0.5-0.4-1.3-1.8-1.9c-4-1.9-15.2-3.4-21.2-4c-1.1,5.4-4,19.8-6.3,24.8c-1.6,3.6-3.6,5.5-6,5.9c-3.4,0.6-6.4-2.2-8.3-4.4
			c-1.3-1.4-2.8-2-4.4-1.8c-2.3,0.4-4.6,2.4-5.7,5.1c-1.5,3.5-0.6,6.6,2.5,7.9c1.1,0.5,2.5,0.9,3.8,1.2c3,0.8,6.1,1.6,7.3,4.4
			c1.1,2.7-0.2,5.7-1.3,7.7c-2.8,5.3-6.2,9.9-8.5,12.9c5.8,0.7,15.7,2,20.2,4c0.1,0,0.2,0.1,0.2,0.1c3,1.4,4,3.6,4.3,5.1
			c0.6,3.1-0.8,6.8-3.9,10.3c-1.4,1.5-1.9,3.2-1.6,4.9c0.5,2.3,2.4,4.4,5,5.6c3.8,1.7,6.3,1.2,7.5-1.5c0.6-1.3,0.9-3,1.3-4.8
			c0.8-3.7,1.6-7.6,4.6-9.1c1.9-0.9,4.1-0.7,6.8,0.7c5.8,3,12.5,8.6,16.2,11.9c1.2-5.7,3.5-16.1,5.4-21.5v-0.1
			c0.8-2.1,2.2-5,4.9-5.7c2.8-0.7,5.1,1.2,7.4,3.2c1.3,1.1,2.6,2.2,3.9,2.8c3.1,1.4,5.9,0.2,7.4-3.2C107.8,76.7,107.7,73.9,106.5,72
			z"/>
	</g>
</g>
</svg>
