<?xml version="1.0" encoding="utf-8"?>
<!-- Generator: Adobe Illustrator 21.1.0, SVG Export Plug-In . SVG Version: 6.00 Build 0)  -->
<svg version="1.1" id="Layer_1" xmlns="http://www.w3.org/2000/svg" xmlns:xlink="http://www.w3.org/1999/xlink" x="0px" y="0px"
	 viewBox="0 0 120 120" style="enable-background:new 0 0 120 120;" xml:space="preserve">
<style type="text/css">
	.st0{opacity:0.3;}
	.st1{fill:#FF9E04;}
</style>
<path class="st0" d="M117,54.9c-2.7-4.3-8-12.4-13.1-17.2c-1.9-1.6-3.6-2.4-5.2-2.4c-0.3,0-0.6,0-0.8,0.1c-3,0.5-4.7,3.7-6.4,7
	c-0.8,1.6-1.7,3.2-2.6,4.3c-1,1.2-2.1,1.8-3.4,1.8c-1.5,0-3.2-0.8-4.9-2.2c-0.7-0.6-1.6-0.9-2.6-0.9c-0.3,0-0.6,0-0.9,0.1
	c-6.5,1.6-11.5,5.8-15,12.4c-0.2,0.3-0.3,0.6-0.5,1.1c-2.4,5.6-5.7,10.1-10,13.7c2.6-3.9,4.5-8.2,5.7-12.8c2.5-9.7,5-13.5,8.3-18
	c0.7-1,1-2.2,0.7-3.4c-0.3-1.2-1.1-2.1-2.2-2.6c-2.8-1.3-4.8-3.5-5.3-5.9s0.6-4.3,1.7-5.5C61.9,23,65,19,64.2,15
	c-0.3-1.4-1.2-3.4-4-4.7C55.4,7.9,43,6.5,38,6c-0.2,0-0.3,0-0.4,0c-1.9,0-3.6,1.3-3.9,3.2c-2.2,11.5-4.4,20.6-5.8,23.7
	c-0.5,1.2-1.7,3.3-2.9,3.5c-0.1,0-0.2,0-0.3,0c-0.7,0-2.1-0.5-4.4-3.1c-2.3-2.6-4.9-3.1-6.6-3.1c-0.5,0-1,0-1.5,0.1
	c-3.6,0.6-6.9,3.5-8.6,7.5c-2.4,5.6-0.5,11,4.5,13.2c1.4,0.6,3,1,4.4,1.4c2.4,0.6,4.2,1.1,4.6,2.1c0.2,0.6,0.2,1.7-1.1,4.2
	c-2.7,5-5.8,9.4-8,12.3c-0.9,1.1-1.1,2.7-0.5,4s1.8,2.3,3.2,2.4c9.1,1,15.9,2.3,18.8,3.6l0.1,0.1c1.2,0.6,1.8,1.3,2,2.2
	c0.3,1.2,1.1,2.3,2.2,2.8c0.1,0.1,0.3,0.1,0.4,0.1c-0.7,0.7-1.6,1.4-2.7,2.2c-3.5,2.2-4.5,5.2-4.7,7.3c-0.3,3.6,1.5,7.3,4.7,10.1
	c2.5,2.1,4.8,3.1,7.1,3.1c1.6,0,4-0.5,6.1-3c1.1-1.4,2.1-3.1,3-4.9c1.2-2.4,2.7-5,4-5.3c0.1,0,0.2,0,0.2,0c0.6,0,1.6,0.5,2.6,1.5
	c4.5,4.2,9.2,11.2,11.6,15c0.7,1.2,2,1.9,3.4,1.9c0.1,0,0.1,0,0.2,0c1.4-0.1,2.7-0.9,3.4-2.1c2.7-5,7.6-14.1,10.8-18.6
	c1.8-2.3,2.7-2.5,2.9-2.5c0.8,0,2,1.9,2.9,3.2c1,1.5,2.2,3.3,3.7,4.5c1.8,1.5,3.9,2.3,6,2.3c2.8,0,5.5-1.4,7.5-3.9
	c2.5-3.1,3.5-7.1,2.5-10.6c-0.9-3-3.1-5.2-6.3-6.2c-2.5-0.8-4.2-1.9-4.4-3c-0.3-1.1,0.7-2.9,2.7-4.9c3.5-3.7,11.4-9.7,14.6-12.1
	C117.6,59,118.1,56.7,117,54.9z"/>
<g>
	<path class="st1" d="M105.5,87.5c-0.5-1.7-1.7-2.9-3.7-3.5c-4.1-1.3-6.5-3.2-7.1-5.9c-0.6-2.6,0.6-5.5,3.7-8.6
		c3.7-3.8,11.5-9.8,15-12.5c-2.2-3.6-7.5-11.7-12.4-16.4c-1-1-1.9-1.5-2.5-1.4c-1.1,0.2-2.5,2.9-3.6,5c-0.9,1.7-1.9,3.5-3,5
		c-3.5,4.3-8.9,4.3-13.9,0.1c-4,1-8.8,3.5-12.4,10.4c-0.9,1.7-5.8,17.3-25.5,23.2c-0.3,3.1-2.6,6.3-6.5,8.8
		c-1.7,1.1-2.7,2.5-2.8,4.3c-0.2,2.3,1.1,4.8,3.3,6.7c3.1,2.7,5.7,2.8,7.6,0.6c0.9-1.1,1.7-2.6,2.5-4.2c1.8-3.3,3.6-6.8,6.9-7.4
		c2-0.4,4.1,0.5,6.3,2.5c4.7,4.5,9.5,11.6,12.2,15.8c2.7-5.1,7.8-14.4,11.1-19v-0.1c1.4-1.8,3.5-4.2,6.2-4.1c2.8,0.1,4.5,2.6,6.2,5
		c0.9,1.4,1.9,2.8,2.9,3.7c2.6,2.2,5.6,1.8,7.9-1C105.4,92.4,106.1,89.7,105.5,87.5z"/>
</g>
<g>
	<path class="st1" d="M53.6,58.9c2.7-10.4,5.5-14.6,8.9-19.3c-4-1.8-6.9-5.1-7.6-8.8c-0.6-3.1,0.3-6.3,2.6-8.9c2-2.2,3-4.6,2.7-6.1
		c-0.1-0.5-0.4-1.2-1.7-1.9c-3.9-1.8-15.1-3.3-21-3.8c-1,5.4-3.9,19.6-6.1,24.6c-1.6,3.5-3.5,5.5-5.9,5.9c-3.4,0.6-6.3-2.2-8.2-4.3
		c-1.3-1.4-2.8-2-4.4-1.7C10.6,35,8.4,37,7.2,39.7C5.8,43,6.7,46,9.8,47.3c1.1,0.5,2.5,0.8,3.8,1.2c3,0.8,6,1.6,7.2,4.4
		c1.1,2.7-0.2,5.7-1.3,7.7c-2.8,5.2-6.1,9.9-8.4,12.8c5.7,0.6,15.6,1.9,20,3.9c0.1,0,0.2,0.1,0.2,0.1c2.9,1.4,3.9,3.5,4.2,5.1
		C43.8,78,50.9,69.3,53.6,58.9z"/>
</g>
</svg>
