<?xml version="1.0" encoding="utf-8"?>
<!-- Generator: Adobe Illustrator 22.0.1, SVG Export Plug-In . SVG Version: 6.00 Build 0)  -->
<svg version="1.1" id="Layer_1" xmlns="http://www.w3.org/2000/svg" xmlns:xlink="http://www.w3.org/1999/xlink" x="0px" y="0px"
	 viewBox="0 0 120 120" style="enable-background:new 0 0 120 120;" xml:space="preserve">
<style type="text/css">
	.st0{fill:none;}
	.st1{fill:none;stroke:#000000;stroke-width:4;stroke-linecap:round;stroke-linejoin:round;stroke-miterlimit:10;}
</style>
<path class="st0" d="M83.7,30.6c-10.1-1.4-15.8,1.7-14.6,11.8h14.3v15.8H69.2V105H48.7V58.2H36.1V42.4h12.6c0-20.6,6-26.3,21.6-27.3
	c4.3-0.3,13.3,0.2,13.3,0.2L83.7,30.6"/>
<path class="st1" d="M60.6,105H48.7V58.2H36.1V42.4h12.6c0-20.6,6-26.3,21.6-27.3c4.3-0.3,13.3,0.2,13.3,0.2l0.1,15.3
	c-10.1-1.4-15.8,1.7-14.6,11.8h14.3v15.8H69.2v27.1"/>
</svg>
