<?xml version="1.0" encoding="utf-8"?>
<!-- Generator: Adobe Illustrator 22.0.1, SVG Export Plug-In . SVG Version: 6.00 Build 0)  -->
<svg version="1.1" id="Layer_1" xmlns="http://www.w3.org/2000/svg" xmlns:xlink="http://www.w3.org/1999/xlink" x="0px" y="0px"
	 viewBox="0 0 120 120" style="enable-background:new 0 0 120 120;" xml:space="preserve">
<style type="text/css">
	.st0{fill:none;}
	.st1{fill:none;stroke:#000000;stroke-width:4;stroke-linecap:round;stroke-linejoin:round;stroke-miterlimit:10;}
</style>
<polygon class="st0" points="95,45 95,55.1 84.8,55.1 84.8,64.9 95,64.9 95,75 104.8,75 104.8,64.9 115,64.9 115,55.1 104.8,55.1 
	104.8,45 "/>
<path class="st0" d="M74.5,54.9h-3.6h-8.3H40.9v11.7h21.2c-2.9,9.6-11.8,16.6-22.2,16.6c-12.8,0-23.3-10.4-23.3-23.3
	c0-12.8,10.4-23.3,23.3-23.3c6.4,0,12.2,2.6,16.5,6.8l8.3-8.3C58.3,29,49.6,25.1,39.9,25.1C20.6,25.1,5,40.7,5,60
	s15.6,34.9,34.9,34.9S74.9,79.3,74.9,60C74.9,58.3,74.7,56.6,74.5,54.9"/>
<polyline class="st1" points="109.3,64.9 115,64.9 115,55.1 104.8,55.1 104.8,45 95,45 95,55.1 84.8,55.1 84.8,64.9 95,64.9 95,75 
	99.6,75 "/>
<path class="st1" d="M66.3,82.9c5.3-6.1,8.6-14.1,8.6-22.9c0-1.7-0.2-3.4-0.4-5.1h-3.6h-8.3H40.9v11.7h21.2
	c-2.9,9.6-11.8,16.6-22.2,16.6c-12.8,0-23.3-10.4-23.3-23.3c0-12.8,10.4-23.3,23.3-23.3c6.4,0,12.2,2.6,16.5,6.8l8.3-8.3
	C58.3,29,49.6,25.1,39.9,25.1C20.6,25.1,5,40.7,5,60s15.6,34.9,34.9,34.9c3.8,0,7.5-0.6,11-1.8"/>
</svg>
