<?xml version="1.0" encoding="utf-8"?>
<!-- Generator: Adobe Illustrator 22.0.1, SVG Export Plug-In . SVG Version: 6.00 Build 0)  -->
<svg version="1.1" id="Layer_1" xmlns="http://www.w3.org/2000/svg" xmlns:xlink="http://www.w3.org/1999/xlink" x="0px" y="0px"
	 viewBox="0 0 120 120" style="enable-background:new 0 0 120 120;" xml:space="preserve">
	<style type="text/css">
		.st0{ fill: rgba(199, 193, 192, 1);}
	</style>
<g>
	<path class="st0" d="M102.5,43.1l-2.8-5l-5,2.8l-7.3,4l-5.1,2.8l2.8,5.1c2.3,4.2,3.6,9,3.6,13.8c0,15.8-12.9,28.7-28.7,28.7
		c-15.8,0-28.7-12.9-28.7-28.7c0-13.6,9.7-25.2,22.5-28v3.2v10.1l8.7-5.2l22.3-13.3l8.3-4.9l-8.3-4.9L62.5,10.2L53.8,5v10.1v3.3
		C30,21.5,11.5,42,11.5,66.5C11.5,93.2,33.3,115,60,115c26.7,0,48.5-21.8,48.5-48.5C108.5,58.3,106.4,50.3,102.5,43.1z"/>
</g>
</svg>
