<?xml version="1.0" encoding="utf-8"?>
<!-- Generator: Adobe Illustrator 22.0.1, SVG Export Plug-In . SVG Version: 6.00 Build 0)  -->
<svg version="1.1" id="Layer_1" xmlns="http://www.w3.org/2000/svg" xmlns:xlink="http://www.w3.org/1999/xlink" x="0px" y="0px"
	 viewBox="0 0 120 120" style="enable-background:new 0 0 120 120;" xml:space="preserve">
<style type="text/css">
	.st0{fill:none;stroke-width:4;stroke-linecap:round;stroke-linejoin:round;stroke-miterlimit:10;}
</style>
<path class="st0" d="M54.5,90.5l0.1-16.1c0-2.4,0.8-4.5,2.4-6.4c1.6-1.9,3.7-3.7,6.1-5.5c2.5-1.8,5.1-3.6,8-5.5
	c2.8-1.9,5.5-4.1,8-6.6c2.5-2.5,4.5-5.4,6.1-8.7c1.6-3.3,2.4-7.2,2.5-11.7c0-3.8-0.8-7.2-2.4-10.3c-1.6-3-3.8-5.6-6.5-7.7
	C76.1,10,73,8.4,69.5,7.2c-3.5-1.1-7.1-1.7-10.9-1.7c-4.7,0-8.7,0.6-12.1,1.8c-3.4,1.2-6.3,2.6-8.7,4c-2.3,1.5-4.2,2.8-5.4,4"/>
<path d="M51,111.1c0-1.1,0.4-2.1,1.1-2.9c0.8-0.8,1.7-1.2,2.8-1.2s2.1,0.4,2.9,1.2c0.8,0.8,1.2,1.8,1.2,2.9c0,1.1-0.4,2-1.2,2.8
	c-0.8,0.8-1.8,1.1-2.9,1.1s-2-0.4-2.8-1.1C51.4,113.1,51,112.2,51,111.1"/>
</svg>
