<?xml version="1.0" encoding="utf-8"?>
<!-- Generator: Adobe Illustrator 22.0.1, SVG Export Plug-In . SVG Version: 6.00 Build 0)  -->
<svg version="1.1" id="Layer_1" xmlns="http://www.w3.org/2000/svg" xmlns:xlink="http://www.w3.org/1999/xlink" x="0px" y="0px"
	 viewBox="0 0 120 120" style="enable-background:new 0 0 120 120;" xml:space="preserve">
<style type="text/css">
	.st0{fill:none;}
	.st1{fill:none;stroke:#000000;stroke-width:4;stroke-linecap:round;stroke-linejoin:round;stroke-miterlimit:10;}
</style>
<path class="st0" d="M60,10c-13.6,0-15.3,0.1-20.6,0.3c-5.3,0.2-9,1.1-12.1,2.3c-3.3,1.3-6.1,3-8.9,5.8c-2.8,2.8-4.5,5.6-5.8,8.9
	c-1.2,3.2-2.1,6.8-2.3,12.1c-0.2,5.3-0.3,7-0.3,20.6s0.1,15.3,0.3,20.6c0.2,5.3,1.1,9,2.3,12.1c1.3,3.3,3,6.1,5.8,8.9
	c2.8,2.8,5.6,4.5,8.9,5.8c3.2,1.2,6.8,2.1,12.1,2.3c5.3,0.2,7,0.3,20.6,0.3c13.6,0,15.3-0.1,20.6-0.3c5.3-0.2,9-1.1,12.1-2.3
	c3.3-1.3,6.1-3,8.9-5.8c2.8-2.8,4.5-5.6,5.8-8.9c1.2-3.2,2.1-6.8,2.3-12.1c0.2-5.3,0.3-7,0.3-20.6s-0.1-15.3-0.3-20.6
	c-0.2-5.3-1.1-9-2.3-12.1c-1.3-3.3-3-6.1-5.8-8.9c-2.8-2.8-5.6-4.5-8.9-5.8c-3.2-1.2-6.8-2.1-12.1-2.3C75.3,10.1,73.6,10,60,10
	 M60,19c13.4,0,14.9,0.1,20.2,0.3c4.9,0.2,7.5,1,9.3,1.7c2.3,0.9,4,2,5.8,3.7c1.7,1.8,2.8,3.4,3.7,5.8c0.7,1.8,1.5,4.4,1.7,9.3
	c0.2,5.3,0.3,6.9,0.3,20.2s-0.1,14.9-0.3,20.2c-0.2,4.9-1,7.5-1.7,9.3c-0.9,2.3-2,4-3.7,5.8c-1.8,1.7-3.4,2.8-5.8,3.7
	c-1.8,0.7-4.4,1.5-9.3,1.7c-5.3,0.2-6.9,0.3-20.2,0.3c-13.4,0-14.9-0.1-20.2-0.3c-4.9-0.2-7.5-1-9.3-1.7c-2.3-0.9-4-2-5.8-3.7
	c-1.7-1.8-2.8-3.4-3.7-5.8c-0.7-1.8-1.5-4.4-1.7-9.3C19.1,74.9,19,73.4,19,60s0.1-14.9,0.3-20.2c0.2-4.9,1-7.5,1.7-9.3
	c0.9-2.3,2-4,3.7-5.8c1.8-1.7,3.4-2.8,5.8-3.7c1.8-0.7,4.4-1.5,9.3-1.7C45.1,19.1,46.6,19,60,19"/>
<path class="st0" d="M60,76.8c-9.3,0-16.8-7.5-16.8-16.8c0-9.3,7.5-16.8,16.8-16.8c9.3,0,16.8,7.5,16.8,16.8
	C76.8,69.3,69.3,76.8,60,76.8 M60,34.2c-14.3,0-25.8,11.6-25.8,25.8c0,14.3,11.6,25.8,25.8,25.8c14.3,0,25.8-11.6,25.8-25.8
	C85.8,45.7,74.3,34.2,60,34.2"/>
<path class="st1" d="M107.4,92.8c1.2-3.2,2.1-6.8,2.3-12.1c0.2-5.3,0.3-7,0.3-20.6s-0.1-15.3-0.3-20.6c-0.2-5.3-1.1-9-2.3-12.1
	c-1.3-3.3-3-6.1-5.8-8.9c-2.8-2.8-5.6-4.5-8.9-5.8c-3.2-1.2-6.8-2.1-12.1-2.3c-5.3-0.2-7-0.3-20.6-0.3 M60,10
	c-13.6,0-15.3,0.1-20.6,0.3c-5.3,0.2-9,1.1-12.1,2.3c-3.3,1.3-6.1,3-8.9,5.8c-2.8,2.8-4.5,5.6-5.8,8.9c-1.2,3.2-2.1,6.8-2.3,12.1
	c-0.2,5.3-0.3,7-0.3,20.6s0.1,15.3,0.3,20.6c0.2,5.3,1.1,9,2.3,12.1c1.3,3.3,3,6.1,5.8,8.9c2.8,2.8,5.6,4.5,8.9,5.8
	c3.2,1.2,6.8,2.1,12.1,2.3c5.3,0.2,7,0.3,20.6,0.3c13.6,0,15.3-0.1,20.6-0.3 M60,19c13.4,0,14.9,0.1,20.2,0.3c4.9,0.2,7.5,1,9.3,1.7
	c2.3,0.9,4,2,5.8,3.7c1.7,1.8,2.8,3.4,3.7,5.8c0.7,1.8,1.5,4.4,1.7,9.3c0.2,5.3,0.3,6.9,0.3,20.2s-0.1,14.9-0.3,20.2
	c-0.2,4.9-1,7.5-1.7,9.3c-0.9,2.3-2,4-3.7,5.8c-1.8,1.7-3.4,2.8-5.8,3.7c-1.8,0.7-4.4,1.5-9.3,1.7c-5.3,0.2-6.9,0.3-20.2,0.3
	c-13.4,0-14.9-0.1-20.2-0.3c-4.9-0.2-7.5-1-9.3-1.7c-2.3-0.9-4-2-5.8-3.7c-1.7-1.8-2.8-3.4-3.7-5.8c-0.7-1.8-1.5-4.4-1.7-9.3
	C19.1,74.9,19,73.4,19,60s0.1-14.9,0.3-20.2c0.2-4.9,1-7.5,1.7-9.3c0.9-2.3,2-4,3.7-5.8c1.8-1.7,3.4-2.8,5.8-3.7
	c1.8-0.7,4.4-1.5,9.3-1.7C45.1,19.1,46.6,19,60,19"/>
<path class="st1" d="M60,76.8c-9.3,0-16.8-7.5-16.8-16.8c0-9.3,7.5-16.8,16.8-16.8c9.3,0,16.8,7.5,16.8,16.8
	C76.8,69.3,69.3,76.8,60,76.8 M82.6,72.5c2-3.7,3.2-7.9,3.2-12.5c0-14.3-11.6-25.8-25.8-25.8 M60,34.2c-14.3,0-25.8,11.6-25.8,25.8
	c0,14.3,11.6,25.8,25.8,25.8c2.8,0,5.6-0.5,8.1-1.3"/>
<path class="point" d="M90.4,33.5c0,2.2-1.7,3.9-3.9,3.9s-3.9-1.7-3.9-3.9c0-2.2,1.7-3.9,3.9-3.9S90.4,31.3,90.4,33.5"/>
</svg>
