<?xml version="1.0" encoding="utf-8"?>
<!-- Generator: Adobe Illustrator 22.0.1, SVG Export Plug-In . SVG Version: 6.00 Build 0)  -->
<svg version="1.1" id="Layer_1" xmlns="http://www.w3.org/2000/svg" xmlns:xlink="http://www.w3.org/1999/xlink" x="0px" y="0px"
	 viewBox="0 0 120 120" style="enable-background:new 0 0 120 120;" xml:space="preserve">
<style type="text/css">
	.st0{fill:none;stroke:#000000;stroke-width:4;stroke-linecap:round;stroke-linejoin:round;stroke-miterlimit:10;}
</style>
<path class="st0" d="M32.7,115c-0.1-1.3,0.9-12.4-0.6-19.5c-3.6-17-13.4-16.9-20.1-36.7c-2-5.9-2.3-12.6-1.5-18.9
	c1.3-9.3,4.5-18.5,12.3-24.4C31.5,8.4,43,5,53.3,5c13.5,0,25.5,4.9,31.8,10.9c6.3,5.9,10.6,14.2,12.4,22.8c0.3,2.8-2.7,4.5-1.6,7.3
	l0.4,1.1c4.3,4.9,8.9,9.8,13.2,14.6c0.5,1,0.3,2.3-0.4,3.1c-1.8,2.1-5.4,1.5-6.1,4.8c-0.2,2.4,1.1,4.2,2.3,6
	c0.1,1.7-2.8,2.6-1.6,4.4c0.6,0.8,2.1,1.1,1.7,2.3c-4.6,4.3,2,8.2,0.4,13.1c-0.9,2.4-3.5,2.6-5.5,3c-5,1.1-10.3,0.6-14.6,3.3
	c-4.1,3.1-3.7,8.6-4.2,13.3v0"/>
</svg>
