<?xml version="1.0" encoding="utf-8"?>
<!-- Generator: Adobe Illustrator 22.0.1, SVG Export Plug-In . SVG Version: 6.00 Build 0)  -->
<svg version="1.1" id="Layer_1" xmlns="http://www.w3.org/2000/svg" xmlns:xlink="http://www.w3.org/1999/xlink" x="0px" y="0px"
	 viewBox="0 0 120 120" style="enable-background:new 0 0 120 120;" xml:space="preserve">
<style type="text/css">
	.st0{fill:none;stroke:#000000;stroke-miterlimit:10;}
</style>
<path class="st0" d="M54.2,8.1c-0.4-0.1-0.7-0.2-1-0.2s-0.5,0-0.7,0.2c-0.6,0.4-0.6,2.4-0.7,3.9c0,1.3-0.1,2.6-0.3,3.8
	c-0.6,2.8-2.8,4.4-5.8,4.4c-0.7,0-1.5-0.1-2.4-0.3c-2.8-0.7-5.1-2.4-6-4.7c-0.8-1.9-0.6-4,0.7-6c1-1.6,1.4-3.3,1.1-4.2
	c-0.1-0.3-0.4-0.7-1.4-1c-1.1-0.3-3.1-0.4-5.2-0.4c-3.1,0-6.6,0.2-8.9,0.4c-0.1,3.2-0.3,11.4-1,15.5c-0.3,1.4-0.8,3.4-2.5,4.2
	c-0.4,0.2-0.9,0.3-1.3,0.3c-1.3,0-2.5-0.7-3.8-1.4c-1-0.7-2-1.2-2.9-1.5c-0.4-0.1-0.7-0.1-1-0.1c-1.7,0-2.9,1.1-3.4,3
	c-0.4,1.7,0,3.5,1,4.5c0.7,0.7,1.5,1.1,2.5,1.1c0.2,0,0.4,0,0.7-0.1c0.7-0.1,1.4-0.2,2-0.2c1.8,0,3.1,0.5,4,1.5
	c1.1,1.3,1.3,3.4,0.3,6.1c-1.1,3.2-3.9,9-5.2,11.5c3.4,2,9.8,5.7,12.6,6.3c0.2,0,0.4,0.1,0.6,0.1c0.6,0,0.8-0.2,1-0.4
	c0.8-0.7,1.1-2.3,1-4.3c-0.2-2.2,0.6-4.2,2.1-5.6c1.4-1.2,3.2-1.8,5.1-1.8c0.7,0,1.5,0.1,2.3,0.3c4.2,1,6.4,3.8,5.5,7.3
	c-0.3,1.2-0.8,2.4-1.4,3.5c-0.6,1.3-1.5,3.1-1.1,3.8c0.2,0.3,0.8,0.6,1.7,0.8c1.9,0.4,4.2,0.5,6.5,0.5c3.3,0,6.4-0.3,7.7-0.4
	c1-1.5,3.2-5.7,4.8-10.3c0.6-1.8,0.3-2.3,0.3-2.4c-0.3-0.4-1.8-0.5-3-0.6c-1-0.1-2-0.1-3.1-0.4c-3.7-0.9-5.7-4.3-4.8-8.3
	c0.7-2.8,2.6-5.1,4.9-6c0.7-0.2,1.4-0.4,2.1-0.4c1.3,0,2.6,0.4,3.8,1.4c1.6,1.1,2.4,1.4,2.8,1.4c0.1,0,0.2,0,0.3-0.1
	c0.5-0.2,0.9-1,1.2-2.3c0.7-2.9,1-12,1-16.2C64.9,13.1,58.9,9.5,54.2,8.1z"/>
<path class="st0" d="M59.2,82.9c-0.6-0.6-1.4-1-2.3-1c-0.2,0-0.5,0-0.7,0.1c-0.7,0.1-1.6,0.2-2.4,0.2c-1.3,0-2.7-0.3-3.7-1.3
	c-1.1-1.2-1.4-2.9-0.8-5.3c0.7-3.1,4-10.2,5.8-13.9c-1.6,0.1-3.6,0.2-5.8,0.2c-2.5,0-5.1-0.1-7.3-0.5c-2-0.3-3.2-1.1-3.8-2.3
	c-1-2,0.1-4.2,1.1-6.4c0.5-1,1-2.1,1.2-2.9c0.4-1.9-0.7-3.1-3.3-3.7c-0.5-0.1-1.1-0.2-1.6-0.2c-1.3,0-2.4,0.4-3.2,1.1
	c-0.8,0.7-1.2,1.8-1.1,3.1c0.3,3-0.4,5.4-1.9,6.8c-0.6,0.6-1.6,1.1-3.1,1.1c-0.4,0-0.8,0-1.2-0.1c-3.5-0.7-10.5-4.8-13.5-6.6
	c-1.5,2.5-4.7,8.1-6,12.7c-0.3,1.1-0.3,1.8-0.1,2c0.2,0.3,1,0.4,1.9,0.4c0.6,0,1.2,0,1.7-0.1c0.5,0,1-0.1,1.6-0.1
	c0.9,0,1.8,0.1,2.6,0.3c3.5,0.8,5,4,4,8.4c-0.7,2.9-2.6,5.3-4.9,6.1c-0.7,0.2-1.3,0.4-2,0.4c-1.3,0-2.6-0.4-3.8-1.4
	c-1.2-0.9-2.3-1.4-3-1.4c-0.2,0-0.3,0-0.5,0.1c-0.5,0.2-1,1-1.2,2.2c-0.5,3-0.4,10-0.4,13.2c2-0.2,5.4-0.4,8.6-0.4
	c2.4,0,4.6,0.1,6.1,0.5c0.1,0,0.1,0,0.2,0c2.1,0.5,3,1.8,3.4,2.7c0.8,1.9,0.3,4.4-1.3,7c-0.7,1.1-0.8,2.2-0.4,3.3
	c0.6,1.4,2.1,2.5,3.9,2.9c0.6,0.1,1.2,0.2,1.7,0.2c1.6,0,2.6-0.7,2.9-2.1c0.2-0.9,0.2-2,0.3-3.1c0.1-2.4,0.1-4.9,1.9-6.2
	c0.7-0.5,1.5-0.7,2.4-0.7c0.6,0,1.3,0.1,2.1,0.3c4,1.2,8.8,3.8,11.7,5.5c-0.1-2.4,0-6.1,0.5-9.9c0.3-2.3,1.1-3.7,2.3-4.5
	c0.6-0.3,1.2-0.5,1.8-0.5c1.2,0,2.5,0.5,3.7,1.1c0.8,0.3,1.7,0.7,2.4,0.9c0.3,0.1,0.6,0.1,0.9,0.1c1.7,0,3-1.2,3.5-3.2
	C60.7,85.9,60.3,84,59.2,82.9z"/>
<path class="st0" d="M117.4,44.9c-0.7-0.7-1.5-1.1-2.5-1.1c-0.2,0-0.4,0-0.7,0.1c-0.7,0.1-1.4,0.2-2,0.2c-1.8,0-3.1-0.5-4-1.5
	c-1.1-1.3-1.3-3.4-0.3-6.1c1.1-3.2,3.9-9,5.2-11.5c-2.4-1.4-7.9-4.6-12.2-5.9c-0.5-0.2-0.9-0.2-1.3-0.2c-0.3,0-0.5,0-0.6,0.1
	c-0.6,0.4-0.6,2.4-0.7,3.9c0,1.3-0.1,2.6-0.3,3.8c-0.6,2.8-2.8,4.4-5.8,4.4c-0.7,0-1.5-0.1-2.4-0.3c-2.8-0.7-5.1-2.4-6-4.7
	c-0.8-1.9-0.6-4,0.7-6c1-1.6,1.4-3.3,1.1-4.2c-0.1-0.3-0.4-0.7-1.4-1c-1.1-0.3-3.1-0.4-5.2-0.4c-3.1,0-6.6,0.2-8.9,0.4
	c0,3.5-0.2,12.9-1.1,16.3c-0.6,2.4-1.6,3.9-3.2,4.4c-0.4,0.2-0.8,0.2-1.3,0.2c-1.7,0-3.4-1.1-4.6-2c-0.7-0.5-1.3-0.8-2-0.8
	c-0.3,0-0.7,0.1-1.1,0.2c-1.4,0.5-2.6,2-3.1,3.9c-0.6,2.4,0.4,4.2,2.5,4.7c0.8,0.2,1.7,0.3,2.6,0.3c2,0.1,4.1,0.3,5.2,1.9
	c1,1.6,0.6,3.6,0.1,5c-1.2,3.7-2.8,7-3.9,9.1c2-0.2,4.7-0.3,7.3-0.3c2.4,0,4.7,0.1,6.2,0.5c0.1,0,0.1,0,0.2,0c2.1,0.5,3,1.8,3.4,2.7
	c0.8,1.9,0.3,4.4-1.3,7c-0.7,1.1-0.8,2.2-0.4,3.3c0.6,1.4,2.1,2.5,3.9,2.9c0.6,0.1,1.2,0.2,1.7,0.2c1.6,0,2.6-0.7,2.9-2.1
	c0.2-0.9,0.2-2,0.3-3.1c0.1-2.4,0.1-4.9,1.9-6.2c0.7-0.5,1.5-0.7,2.4-0.7c0.6,0,1.3,0.1,2.1,0.3c4.1,1.2,9.1,3.9,11.9,5.6
	c0.1-3.7,0.3-10.6,0.9-14.2c0.3-1.4,0.8-3.4,2.5-4.2c0.4-0.2,0.9-0.3,1.3-0.3c1.3,0,2.5,0.7,3.8,1.4c0.9,0.5,1.9,1.1,2.8,1.3
	c0.4,0.1,0.7,0.1,1,0.1c1.7,0,2.9-1.1,3.4-3C118.7,47.7,118.4,45.9,117.4,44.9z"/>
<path class="st0" d="M89.8,65.5c-0.5-0.2-0.9-0.2-1.3-0.2c-0.3,0-0.5,0-0.6,0.1c-0.6,0.4-0.6,2.4-0.7,3.9c0,1.3-0.1,2.6-0.3,3.8
	c-0.6,2.8-2.8,4.4-5.8,4.4c-0.7,0-1.5-0.1-2.4-0.3c-2.8-0.7-5-2.4-6-4.7c-0.8-1.9-0.6-4.1,0.6-6c1-1.7,1.4-3.3,1-4.3
	c-0.1-0.3-0.4-0.7-1.3-1h-0.1c-1.1-0.3-2.9-0.4-4.9-0.4c-3.4,0-7.3,0.3-9.6,0.5C57.1,64,52.8,73,52.1,76.2c-0.3,1.3-0.3,2.3,0.1,2.6
	c0.1,0.1,0.5,0.4,1.5,0.4c0.5,0,1.1,0,1.9-0.2c0.4-0.1,0.9-0.1,1.3-0.1c1.7,0,3.3,0.6,4.4,1.9c1.7,1.8,2.4,4.7,1.7,7.6
	c-0.8,3.4-3.3,5.5-6.3,5.5c-0.5,0-1.1-0.1-1.7-0.2c-1-0.2-2-0.6-2.9-1c-0.9-0.4-2.1-0.8-2.6-0.8c-0.1,0-0.2,0-0.3,0
	c-0.1,0.1-0.6,0.4-0.9,2.3c-0.7,4.9-0.5,9.6-0.4,11.4c3.2,1.9,10.2,6,13.1,6.6c0.2,0,0.4,0.1,0.6,0.1c0.6,0,0.9-0.2,1.1-0.4
	c0.8-0.7,1.1-2.3,0.9-4.2c-0.2-2.3,0.5-4.3,2.1-5.6c1.4-1.2,3.2-1.8,5.1-1.8c0.8,0,1.6,0.1,2.4,0.3c4.2,1,6.4,3.8,5.5,7.3
	c-0.3,1.2-0.8,2.4-1.4,3.5c-0.6,1.3-1.5,3.1-1.1,3.8c0.2,0.3,0.8,0.6,1.7,0.8c1.9,0.4,4.2,0.5,6.4,0.5c3.3,0,6.3-0.3,7.7-0.4
	c1.3-2.2,4.4-8.5,5.5-11.7c0.5-1.6,0.6-2.7,0.2-3.2c-0.2-0.3-0.8-0.5-1.6-0.5c-0.5,0-1,0.1-1.6,0.2c-0.4,0.1-0.8,0.1-1.3,0.1
	c-1.8,0-3.4-0.7-4.6-2c-1.7-1.8-2.3-4.6-1.7-7.3c0.8-3.3,3.2-5.3,6.2-5.3c0.5,0,1.1,0.1,1.7,0.2c1.3,0.3,2.5,1,3.6,1.6
	c0.6,0.4,1.8,1,2.3,1c0.1,0,0.1,0,0.1,0c0,0,0.4-0.3,0.8-2c0.7-4.1,0.9-12.8,0.9-15.5C100.5,70.5,94.5,66.9,89.8,65.5z"/>
</svg>
