<?xml version="1.0" encoding="utf-8"?>
<!-- Generator: Adobe Illustrator 22.0.1, SVG Export Plug-In . SVG Version: 6.00 Build 0)  -->
<svg version="1.1" id="Layer_1" xmlns="http://www.w3.org/2000/svg" xmlns:xlink="http://www.w3.org/1999/xlink" x="0px" y="0px"
	 viewBox="0 0 120 120" style="enable-background:new 0 0 120 120;" xml:space="preserve">
<style type="text/css">
	.st0{fill:none;stroke:#000000;stroke-width:4;stroke-linecap:round;stroke-linejoin:round;stroke-miterlimit:10;}
</style>
<path class="st0" d="M90.2,84.5h18.4c3.5,0,6.5-2.9,6.5-6.5V42c0-3.6-2.9-6.5-6.5-6.5h-71c-3.5,0-8.7,1.9-11.4,4.2L7,55.8
	c-2.7,2.3-2.7,6.1,0,8.4l19.1,16.1c2.7,2.3,7.9,4.2,11.4,4.2h29.5"/>
<path d="M26.7,63.6c2,0,3.6-1.6,3.6-3.6c0-2-1.6-3.6-3.6-3.6c-2,0-3.6,1.6-3.6,3.6C23.1,62,24.7,63.6,26.7,63.6"/>
</svg>
