<?xml version="1.0" encoding="utf-8"?>
<!-- Generator: Adobe Illustrator 21.1.0, SVG Export Plug-In . SVG Version: 6.00 Build 0)  -->
<svg version="1.1" id="Layer_1" xmlns="http://www.w3.org/2000/svg" xmlns:xlink="http://www.w3.org/1999/xlink" x="0px" y="0px"
	 viewBox="0 0 120 120" style="enable-background:new 0 0 120 120;" xml:space="preserve">
<style type="text/css">
	.st0{fill:#FFFFFF;}
</style>
<g>
	<g>
		<g>
			<path class="st0" d="M60,120C27,120,0,93,0,60S27,0,60,0s60,27,60,60S93,120,60,120z M60,12c-26.5,0-48,21.5-48,48s21.5,48,48,48
				s48-21.5,48-48S86.5,12,60,12z"/>
		</g>
	</g>
</g>
<g>
	<g>
		<path class="st0" d="M84.2,85.8c-1.2,0-2.6-0.4-3.7-1.2L54,63.4V28.9c0-3.4,2.6-6,6-6s6,2.6,6,6v28.6L87.9,75
			c2.6,2.1,3,5.8,0.9,8.5C87.7,85.1,85.9,85.8,84.2,85.8z"/>
	</g>
</g>
</svg>
