<?xml version="1.0" encoding="utf-8"?>
<!-- Generator: Adobe Illustrator 22.0.1, SVG Export Plug-In . SVG Version: 6.00 Build 0)  -->
<svg version="1.1" id="Layer_1" xmlns="http://www.w3.org/2000/svg" xmlns:xlink="http://www.w3.org/1999/xlink" x="0px" y="0px"
	 viewBox="0 0 120 120" style="enable-background:new 0 0 120 120;" xml:space="preserve">
<style type="text/css">
	.st0{fill:none;}
	.st1{fill:none;stroke:#000000;stroke-width:4;stroke-linecap:round;stroke-linejoin:round;stroke-miterlimit:10;}
</style>
<path class="st0" d="M109.3,36.4c-0.7-0.6-1.7-0.7-2.5-0.2c-0.8,0.5-1.8,0.9-2.8,1.3c1.6-2.1,2.5-4.5,2.5-7c0-0.9-0.6-1.7-1.4-2.1
	c-0.9-0.3-1.8,0-2.4,0.7c-1.1,1.5-5.5,4.3-8.7,5c-0.3-0.4-0.5-0.8-0.8-1.1C88,25.8,79.7,21.7,71.8,21.7c0.8-0.9,1.3-1.8,1.4-2.8
	c0.1-1-0.3-1.9-0.9-2.6c-1.3-1.4-3.1-1.1-5,0c-0.2-0.4-0.6-0.7-1-0.9c-0.6-0.3-1.3-0.3-1.9,0.1c-1.5,0.8-2.9,1.9-4.1,3.1
	c-0.2-0.1-0.4-0.2-0.7-0.2c-0.8-0.2-1.6,0.2-2.1,0.8c-5.8,8-6.8,18.8-6.9,28.8c-2.7-1-5.4-1.9-7.7-2.2c-9.2-1.2-18.6-1.6-30.7-1.5
	c-0.7,0-1.3,0.3-1.7,0.9c-0.4,0.5-0.5,1.2-0.3,1.8c1,3.5,3.9,7.4,9.4,9.5c-0.4,0.2-0.7,0.5-1,0.7c-0.9,0.6-1.2,1.9-0.6,2.9
	c2.5,3.9,5.9,6.2,10.6,6.8c-0.6,0.7-1,1.6-1.3,2.5c-0.3,0.8-0.1,1.7,0.6,2.3c1.4,1.2,5.5,4.4,11.6,3.5c-0.4,2.2,0.6,3.7,1,4.3
	c1.3,1.7,3.5,2.6,5.9,2.6c0,0,0.1,0,0.1,0C38.9,93.8,24.5,96.7,14,92.3c-1-0.4-2.2,0-2.7,1c-0.5,1-0.2,2.2,0.7,2.8
	c9.1,5.8,19.2,8.7,29.5,8.7c10.8,0,21.7-3.2,31.8-9.6C91,84.1,101.3,66,99.8,48.6c4.9-2.2,8.3-5.5,10-9.8
	C110.2,37.9,109.9,36.9,109.3,36.4z"/>
<path class="st1" d="M81.7,89C94.2,78,101,63,99.8,48.6c4.9-2.2,8.3-5.5,10-9.8c0.3-0.8,0.1-1.8-0.6-2.4c-0.7-0.6-1.7-0.7-2.5-0.2
	c-0.8,0.5-1.8,0.9-2.8,1.3c1.6-2.1,2.5-4.5,2.5-7c0-0.9-0.6-1.7-1.4-2.1c-0.9-0.3-1.8,0-2.4,0.7c-1.1,1.5-5.5,4.3-8.7,5
	c-0.3-0.4-0.5-0.8-0.8-1.1C88,25.8,79.7,21.7,71.8,21.7c0.8-0.9,1.3-1.8,1.4-2.8c0.1-1-0.3-1.9-0.9-2.6c-1.3-1.4-3.1-1.1-5,0
	c-0.2-0.4-0.6-0.7-1-0.9c-0.6-0.3-1.3-0.3-1.9,0.1c-1.5,0.8-2.9,1.9-4.1,3.1c-0.2-0.1-0.4-0.2-0.7-0.2c-0.8-0.2-1.6,0.2-2.1,0.8
	c-5.8,8-6.8,18.8-6.9,28.8c-2.7-1-5.4-1.9-7.7-2.2c-9.2-1.2-18.6-1.6-30.7-1.5c-0.7,0-1.3,0.3-1.7,0.9c-0.4,0.5-0.5,1.2-0.3,1.8
	c1,3.5,3.9,7.4,9.4,9.5c-0.4,0.2-0.7,0.5-1,0.7c-0.9,0.6-1.2,1.9-0.6,2.9c2.5,3.9,5.9,6.2,10.6,6.8c-0.6,0.7-1,1.6-1.3,2.5
	c-0.3,0.8-0.1,1.7,0.6,2.3c1.4,1.2,5.5,4.4,11.6,3.5c-0.4,2.2,0.6,3.7,1,4.3c1.3,1.7,3.5,2.6,5.9,2.6c0,0,0.1,0,0.1,0
	C38.9,93.8,24.5,96.7,14,92.3c-1-0.4-2.2,0-2.7,1c-0.5,1-0.2,2.2,0.7,2.8c9.1,5.8,19.2,8.7,29.5,8.7c6.8,0,13.7-1.3,20.4-3.8"/>
</svg>
