<?xml version="1.0" encoding="utf-8"?>
<!-- Generator: Adobe Illustrator 22.0.1, SVG Export Plug-In . SVG Version: 6.00 Build 0)  -->
<svg version="1.1" id="Layer_1" xmlns="http://www.w3.org/2000/svg" xmlns:xlink="http://www.w3.org/1999/xlink" x="0px" y="0px"
	 viewBox="0 0 120 120" style="enable-background:new 0 0 120 120;" xml:space="preserve">
<style type="text/css">
	.st0{fill:none;stroke:#000000;stroke-width:4;stroke-linecap:round;stroke-linejoin:round;stroke-miterlimit:10;}
</style>
<path class="st0" d="M110.4,98.4c2.5,0,4.6-2.1,4.6-4.6V20.5c0-2.5-2.1-4.6-4.6-4.6H9.6c-2.5,0-4.6,2.1-4.6,4.6v73.3
	c0,2.5,2.1,4.6,4.6,4.6H79"/>
<path class="st0" d="M5,74.8l23.6-21.2c1.9-1.7,5.1-1.9,7.2-0.5l14.4,9.6c2.1,1.4,5.4,1.2,7.3-0.4l23.3-19.7
	c1.9-1.6,5.1-1.7,7.1-0.1L115,63.8"/>
</svg>
